<?xml version="1.0" standalone="no"?>
<!DOCTYPE svg PUBLIC "-//W3C//DTD SVG 20010904//EN"
 "http://www.w3.org/TR/2001/REC-SVG-20010904/DTD/svg10.dtd">
<svg version="1.0" xmlns="http://www.w3.org/2000/svg"
 width="564.000000pt" height="564.000000pt" viewBox="0 0 564.000000 564.000000"
 preserveAspectRatio="xMidYMid meet">
<metadata>
Created by potrace 1.11, written by Peter Selinger 2001-2013
</metadata>
<g transform="translate(0.000000,564.000000) scale(0.100000,-0.100000)"
fill="#000000" stroke="none">
<path d="M2715 5607 c-58 -20 -155 -70 -375 -197 l-195 -112 -335 -5 -335 -5
-52 -30 c-29 -16 -71 -50 -95 -77 -36 -40 -225 -344 -309 -499 -22 -39 -43
-54 -215 -152 -334 -190 -394 -231 -433 -293 -42 -69 -51 -138 -59 -473 l-9
-319 -128 -225 c-137 -239 -174 -326 -175 -403 0 -90 22 -139 227 -500 l84
-149 9 -331 c5 -183 14 -346 19 -363 33 -115 78 -149 516 -402 l140 -81 100
-173 c203 -350 236 -394 335 -447 l58 -31 323 0 323 0 235 -134 c350 -198 331
-190 433 -189 82 0 92 2 180 45 51 25 185 98 297 162 l204 116 329 0 329 0 58
30 c84 42 126 96 291 371 86 143 157 251 175 265 17 12 102 66 190 119 272
166 352 222 385 270 60 87 62 101 67 453 l6 322 114 198 c63 108 135 235 160
282 44 84 45 85 41 170 -4 103 -26 153 -200 453 l-116 198 -4 327 c-4 312 -5
329 -27 377 -43 96 -115 152 -453 350 l-183 107 -100 176 c-116 203 -206 345
-243 385 -15 16 -52 43 -82 62 l-55 33 -345 5 -345 5 -193 111 c-313 180 -364
204 -452 208 -45 2 -91 -3 -115 -10z m441 -1539 c84 -78 330 -351 435 -480 85
-106 99 -142 79 -204 -15 -43 -68 -105 -117 -135 -38 -24 -110 -29 -154 -11
-28 11 -196 188 -399 420 -161 184 -180 213 -180 269 0 54 16 87 67 134 54 52
90 68 150 69 50 0 55 -2 119 -62z m-390 -400 c92 -96 369 -409 422 -476 66
-84 63 -92 -74 -213 -58 -51 -103 -95 -102 -99 2 -4 114 -131 249 -281 431
-479 771 -863 800 -903 25 -33 29 -48 29 -101 0 -69 -19 -103 -70 -130 -43
-22 -132 -19 -163 5 -32 26 -279 292 -661 715 -392 433 -425 468 -439 462 -7
-3 -59 -46 -116 -96 -68 -60 -112 -91 -128 -91 -26 0 -85 59 -328 330 -201
223 -245 278 -245 300 0 19 132 147 425 411 217 195 273 239 306 239 19 0 44
-19 95 -72z m-947 -713 c33 -17 459 -478 536 -580 51 -67 39 -156 -28 -225
-75 -75 -159 -100 -226 -66 -49 26 -501 517 -553 601 -11 19 -18 49 -18 82 0
43 6 59 33 95 51 67 119 108 179 108 27 0 62 -7 77 -15z"/>
</g>
</svg>
